<?xml version="1.0" standalone="no"?>
<!DOCTYPE svg PUBLIC "-//W3C//DTD SVG 20010904//EN"
 "http://www.w3.org/TR/2001/REC-SVG-20010904/DTD/svg10.dtd">
<svg version="1.0" xmlns="http://www.w3.org/2000/svg"
 width="1076.000000pt" height="876.000000pt" viewBox="0 0 1076.000000 876.000000"
 preserveAspectRatio="xMidYMid meet">

<g transform="translate(0.000000,876.000000) scale(0.100000,-0.100000)"
fill="#000000" stroke="none">
<path d="M5965 7931 c-17 -8 -87 -30 -235 -73 -19 -6 -53 -16 -75 -23 -161
-52 -474 -146 -505 -152 -14 -2 -34 -8 -45 -13 -16 -7 -134 -44 -171 -53 -8
-2 -17 12 -45 78 -12 28 -32 58 -43 67 -26 22 -77 23 -136 3 -25 -8 -85 -26
-135 -41 -49 -14 -103 -30 -120 -35 -16 -5 -95 -29 -175 -53 -80 -25 -185 -57
-235 -71 -49 -15 -107 -33 -127 -41 -20 -7 -39 -10 -42 -5 -3 4 4 25 14 47 40
77 18 188 -50 252 -69 66 -155 85 -242 52 -178 -66 -205 -300 -46 -405 49 -33
43 -40 -48 -65 -38 -10 -107 -31 -154 -45 -47 -15 -145 -44 -219 -66 -73 -22
-141 -43 -150 -48 -9 -5 -34 -12 -56 -16 -61 -10 -234 -73 -251 -90 -26 -26
-32 -67 -18 -120 17 -64 17 -85 2 -89 -123 -35 -526 -158 -673 -205 -49 -16
-126 -38 -170 -51 -44 -12 -88 -26 -97 -31 -10 -5 -24 -9 -32 -9 -24 0 -140
-56 -158 -76 -27 -30 -48 -89 -48 -134 0 -22 13 -82 29 -133 17 -50 44 -139
61 -197 18 -58 38 -120 46 -138 8 -18 14 -42 14 -52 0 -11 4 -28 9 -38 5 -9
23 -62 40 -117 73 -238 93 -301 101 -325 5 -14 16 -52 25 -85 9 -33 20 -69 25
-80 4 -11 14 -42 23 -70 8 -27 33 -108 56 -180 22 -71 50 -164 62 -205 12 -41
26 -79 30 -84 5 -6 9 -22 9 -37 0 -15 5 -31 10 -34 6 -3 10 -14 10 -23 0 -9
22 -87 50 -172 55 -171 53 -166 105 -335 20 -66 51 -167 70 -225 18 -58 49
-159 70 -225 20 -66 50 -160 66 -210 15 -49 49 -157 74 -240 25 -82 61 -197
79 -255 46 -146 99 -319 131 -425 15 -49 42 -135 60 -190 18 -55 44 -140 59
-190 35 -116 46 -151 62 -200 6 -22 24 -80 39 -130 15 -49 35 -112 46 -140 10
-27 22 -65 25 -83 4 -18 11 -35 15 -38 14 -8 11 32 -5 68 -8 18 -24 67 -36
108 -13 41 -28 93 -35 115 -7 22 -25 81 -40 130 -15 50 -42 137 -60 195 -18
58 -49 159 -70 225 -20 66 -40 131 -45 145 -4 14 -15 50 -24 80 -9 30 -27 89
-40 130 -13 41 -34 109 -46 150 -13 41 -38 122 -56 180 -63 200 -136 435 -145
465 -18 62 -111 361 -119 385 -5 14 -21 66 -36 115 -15 50 -41 135 -59 190
-18 55 -45 141 -59 190 -15 50 -41 131 -58 180 -16 50 -32 104 -35 120 -2 17
-8 39 -13 50 -10 26 -41 126 -156 500 -13 44 -39 127 -57 185 -19 58 -39 125
-46 150 -7 25 -19 63 -26 85 -7 22 -25 81 -40 130 -16 50 -36 115 -46 145 -9
30 -28 91 -42 135 -14 44 -37 121 -53 170 -17 54 -29 113 -29 147 0 48 4 62
31 95 35 43 78 71 129 84 41 10 81 22 150 43 28 8 113 33 190 56 77 22 187 56
245 74 58 18 130 40 160 49 30 8 101 30 158 47 82 25 106 29 118 20 7 -7 14
-19 14 -26 0 -12 18 -72 88 -293 19 -61 59 -101 102 -101 15 0 52 7 81 16 30
9 88 27 129 39 41 13 109 33 150 45 41 12 93 28 115 35 40 13 143 45 345 105
58 17 148 44 200 60 52 15 142 43 200 60 58 18 139 43 180 55 41 13 136 42
210 64 74 22 189 57 255 77 66 20 136 41 155 46 108 31 142 76 122 157 -16 61
-73 241 -84 267 -5 11 -10 36 -11 54 -2 38 -2 38 188 94 50 14 140 42 200 61
61 19 153 46 205 61 52 14 120 34 150 44 30 10 89 28 130 40 41 12 99 30 128
41 79 28 140 25 188 -9 21 -16 44 -35 50 -43 15 -18 48 -100 64 -159 12 -41
32 -106 80 -260 10 -30 25 -82 35 -115 10 -33 21 -69 25 -80 32 -87 80 -257
75 -265 -3 -5 -13 -10 -21 -10 -19 0 -83 -41 -111 -71 -73 -80 -70 -234 6
-303 12 -11 21 -24 21 -30 0 -8 -139 -11 -480 -11 l-480 0 -27 -28 c-24 -23
-29 -38 -33 -100 l-5 -72 -580 -5 -580 -5 -40 -23 c-22 -13 -53 -42 -70 -65
l-30 -42 -3 -2360 c-1 -1297 -6 -2363 -10 -2367 -5 -5 -37 -17 -73 -27 -35
-11 -140 -43 -234 -71 -93 -29 -183 -56 -200 -60 -16 -5 -68 -21 -115 -36 -49
-16 -116 -29 -159 -32 l-73 -4 -47 49 c-35 36 -52 64 -65 108 -9 33 -21 68
-27 77 -5 10 -9 27 -9 37 0 11 -4 23 -10 26 -19 12 -5 -66 21 -117 5 -10 9
-25 9 -33 0 -55 76 -140 143 -160 67 -20 69 -19 492 110 66 20 134 40 150 45
17 4 57 17 90 29 33 11 72 21 88 21 l27 0 0 -272 c0 -150 4 -290 9 -310 11
-47 45 -90 96 -120 l40 -23 2314 -3 c1595 -1 2325 1 2352 8 48 13 107 64 126
107 11 27 13 477 13 2699 0 2451 -1 2668 -16 2700 -24 49 -77 89 -137 103 -36
8 -215 11 -590 11 -296 0 -542 2 -547 5 -6 4 -10 31 -10 61 0 60 -19 107 -50
124 -14 8 -174 11 -495 11 -261 0 -477 4 -479 8 -3 5 6 19 20 32 37 35 55 78
61 144 5 52 2 68 -21 112 -36 71 -99 118 -179 131 -45 8 -56 22 -78 102 -6 25
-22 77 -35 115 -12 39 -34 111 -49 160 -15 50 -31 99 -35 110 -4 11 -12 36
-18 55 -38 128 -96 300 -110 330 -26 54 -88 91 -158 96 -32 2 -68 0 -79 -5z
m-2219 -147 c74 -35 99 -144 48 -211 -47 -61 -101 -76 -174 -47 -100 40 -113
187 -21 250 42 28 97 31 147 8z m2797 -915 c26 -7 47 -23 67 -51 36 -49 39
-98 10 -146 -80 -131 -274 -67 -257 86 7 66 50 104 137 121 3 0 22 -4 43 -10z
m-1224 -563 c7 -9 11 -76 10 -206 -1 -176 0 -194 18 -219 11 -14 31 -32 44
-38 19 -10 267 -13 1107 -13 1153 0 1113 -2 1153 46 11 13 15 66 19 228 l5
211 554 3 c367 1 567 -1 593 -8 52 -15 112 -70 126 -118 14 -46 17 -5249 3
-5321 -7 -32 -21 -55 -55 -90 l-46 -46 -2343 0 -2343 0 -36 24 c-19 13 -46 40
-59 59 l-24 36 0 2678 0 2678 41 40 c70 71 55 69 670 70 453 0 554 -2 563 -14z
m1726 -36 c3 -5 1 -10 -4 -10 -6 0 -11 5 -11 10 0 6 2 10 4 10 3 0 8 -4 11
-10z"/>
</g>
</svg>
